<?xml version="1.0" standalone="no"?>
<!DOCTYPE svg PUBLIC "-//W3C//DTD SVG 20010904//EN"
 "http://www.w3.org/TR/2001/REC-SVG-20010904/DTD/svg10.dtd">
<svg version="1.0" xmlns="http://www.w3.org/2000/svg"
 width="200.000000pt" height="200.000000pt" viewBox="0 0 200.000000 200.000000"
 preserveAspectRatio="xMidYMid meet">

<g transform="translate(0.000000,200.000000) scale(0.100000,-0.100000)"
fill="#000000" stroke="none">
<path d="M685 1179 c-21 -5 -50 -19 -62 -31 -51 -48 -17 -92 116 -148 55 -23
105 -48 111 -55 38 -46 -32 -99 -118 -91 -65 6 -86 20 -71 48 23 42 -50 68
-84 30 -24 -26 -21 -47 10 -71 111 -88 353 -46 353 62 0 42 -40 74 -150 122
-103 44 -127 67 -96 91 26 18 76 19 76 0 0 -8 16 -20 35 -26 64 -21 104 29 45
57 -36 17 -119 23 -165 12z m148 -21 c37 -14 35 -38 -3 -38 -19 0 -33 7 -40
20 -22 41 -130 16 -130 -30 0 -21 44 -46 152 -89 101 -40 136 -101 86 -149
-35 -31 -76 -44 -148 -45 -72 0 -155 29 -167 59 -13 34 35 70 60 45 7 -7 6
-15 -3 -26 -11 -14 -10 -19 9 -38 18 -19 33 -22 96 -22 83 0 128 22 133 67 4
34 -19 52 -128 98 -105 45 -130 63 -130 95 0 60 119 90 213 53z"/>
<path d="M1020 1175 c-10 -12 -8 -16 14 -25 l26 -10 0 -134 c0 -132 0 -135
-22 -138 -13 -2 -23 -10 -23 -18 0 -13 25 -15 152 -18 l152 -3 41 52 c62 79
32 96 -52 29 -47 -37 -55 -40 -114 -40 l-64 0 0 140 c0 129 1 140 18 140 26 0
34 11 21 27 -16 19 -133 18 -149 -2z m135 -5 c4 -6 -5 -10 -19 -10 l-26 0 0
-150 0 -150 79 0 c77 0 79 1 130 41 29 23 54 39 56 37 3 -3 -11 -26 -31 -51
l-37 -47 -139 0 c-90 0 -137 4 -133 10 3 6 15 10 26 10 19 0 19 7 17 148 -3
144 -3 147 -26 150 -12 2 -20 8 -17 13 8 12 112 12 120 -1z"/>
</g>
</svg>
